<svg id="Layer_1" data-name="Layer 1" xmlns="http://www.w3.org/2000/svg" viewBox="0 0 1071.53 1071.48"><defs><style>.cls-1{fill:#666;}.cls-2{fill:gray;}.cls-3{fill:#fff;}.cls-4{fill:#333;opacity:0.15;}</style></defs><title>Logo</title><polygon class="cls-1" points="625.1 625.07 357.1 893.07 357.1 1071.74 535.77 893.07 714.43 714.41 625.1 625.07"/><polygon class="cls-2" points="357.1 714.41 535.77 535.74 535.77 -0.26 357.1 -0.26 357.1 714.41"/><rect class="cls-3" x="-0.23" y="-0.26" width="178.67" height="1072"/><rect x="178.43" y="-0.26" width="178.67" height="1072"/><polygon points="535.77 -0.26 357.1 -0.26 357.1 178.41 535.77 -0.26"/><polygon points="357.1 893.07 357.1 1071.74 535.77 1071.74 357.1 893.07"/><polygon points="714.43 -0.26 357.1 357.07 357.1 535.74 535.77 357.07 893.1 -0.26 714.43 -0.26"/><polygon points="1071.77 -0.26 714.43 357.07 357.1 714.41 357.1 893.07 446.43 803.74 714.43 1071.74 893.1 1071.74 714.43 893.07 540.73 709.44 625.1 625.07 714.43 714.41 1071.77 1071.74 1071.77 893.07 714.43 535.74 1071.77 178.41 1071.77 -0.26"/><polygon class="cls-3" points="892.77 -0.26 1071.77 -0.26 535.77 535.74 535.77 356.74 892.77 -0.26"/><polygon class="cls-3" points="535.77 -0.26 714.77 -0.26 535.77 178.41 535.77 -0.26"/><polygon class="cls-3" points="714.77 714.74 625.27 798.81 892.77 1071.74 1071.77 1071.74 714.77 714.74"/><polygon class="cls-3" points="535.77 893.07 714.77 1071.74 535.77 1071.74 446.77 982.74 535.77 893.07"/><polygon class="cls-4" points="-0.23 -0.26 1071.77 -0.26 1071.77 178.74 714.77 535.74 1071.77 893.74 1071.77 1071.74 -0.23 1071.74 -0.23 -0.26"/></svg>